<svg xmlns="http://www.w3.org/2000/svg" viewBox="0 0 280 64" fill="none">
  <!-- Icon (scaled down) -->
  <g transform="translate(0, 0) scale(0.5)">
    <!-- Shadow shape -->
    <g transform="translate(0, 12) scale(0.25)">
      <path fill="#8B5CF6" opacity="0.35" d="M433.79 59.602c-8.94.047-20.654 3.077-34.966 9.876C295.2 62.252 170.14 77.352 86.788 103.535c-60.407-27.913-70.404-.426-42.95 36.186C10.242 239.454 24.97 340.803 60.7 413.31c-11.01 47.633 16.965 45.498 41.172 26.452 170.77 9.1 281.83-16.52 349.88-68.666 24.01 19.23 41.66-6.006 31.868-36.856 11.922-71.81-9.07-167.31-36.093-233.78 13.362-23.473 8.022-40.975-13.737-40.858z"/>
    </g>
    <!-- Pillow shape -->
    <g transform="translate(-3, 8) scale(0.25)">
      <path fill="#DDD6FE" d="M433.79 59.602c-8.94.047-20.654 3.077-34.966 9.876C295.2 62.252 170.14 77.352 86.788 103.535c-60.407-27.913-70.404-.426-42.95 36.186C10.242 239.454 24.97 340.803 60.7 413.31c-11.01 47.633 16.965 45.498 41.172 26.452 170.77 9.1 281.83-16.52 349.88-68.666 24.01 19.23 41.66-6.006 31.868-36.856 11.922-71.81-9.07-167.31-36.093-233.78 13.362-23.473 8.022-40.975-13.737-40.858z"/>
      <path fill="#A78BFA" opacity="0.35" d="M76.404 137.562c52.65 61.045 53.612 200.38 21.748 283.403 7.046-90.91 2.505-223.673-21.748-283.404z"/>
    </g>
    <!-- Zzz -->
    <g fill="#7C3AED" font-family="Arial Black, Arial, sans-serif" font-style="italic" font-weight="900">
      <text x="70" y="40" font-size="30">z</text>
      <text x="90" y="26" font-size="22">z</text>
      <text x="106" y="14" font-size="15">z</text>
    </g>
  </g>

  <!-- Text -->
  <text x="72" y="42" font-family="Inter, -apple-system, BlinkMacSystemFont, sans-serif" font-size="28" font-weight="600" fill="#312E81">TabRest</text>
</svg>
